<?xml version="1.0" encoding="UTF-8"?>
<svg id="Layer_2" data-name="Layer 2" xmlns="http://www.w3.org/2000/svg" viewBox="0 0 2451.1496 2451.1496">
  <defs>
    <style>
      .cls-1 {
        stroke: #79bd71;
        stroke-miterlimit: 10;
      }

      .cls-1, .cls-2 {
        fill: none;
        stroke-width: 46px;
      }

      .cls-3 {
        fill: #79bd71;
      }

      .cls-4 {
        fill: #93b7d2;
      }

      .cls-5 {
        fill: #bfd5e9;
      }

      .cls-6 {
        fill: #35464c;
      }

      .cls-7 {
        fill: #94cc8d;
      }

      .cls-8 {
        fill: #e8e7e2;
      }

      .cls-9 {
        fill: #58a567;
      }

      .cls-10 {
        fill: #fff;
      }

      .cls-11 {
        opacity: .3;
      }

      .cls-12 {
        fill: #7aa2c4;
      }

      .cls-13 {
        fill: #556b7b;
      }

      .cls-2 {
        stroke: #35464c;
        stroke-linecap: round;
        stroke-linejoin: round;
      }
    </style>
  </defs>
  <g>
    <!--<ellipse class="cls-8" cx="1141.3344" cy="2040.252" rx="470.8774" ry="51.4488"/>-->
    <g>
      <g>
        <path class="cls-13" d="M1660.4632,1496.2002c0,277.3801-226.8,502.24-506.58,502.24-55.9,0-109.6901-8.97-159.9701-25.5599-201.3899-66.39-346.6199-254.7201-346.6199-476.6801s145.22-410.28,346.6-476.6799c50.2899-16.5801,104.09-25.5601,159.99-25.5601,279.7799,0,506.58,224.8601,506.58,502.24Z"/>
        <path class="cls-1" d="M1660.4632,1496.2002c0,277.3801-226.8,502.24-506.58,502.24-55.9,0-109.6901-8.97-159.9701-25.5599-201.3899-66.39-346.6199-254.7201-346.6199-476.6801s145.22-410.28,346.6-476.6799c50.2899-16.5801,104.09-25.5601,159.99-25.5601,279.7799,0,506.58,224.8601,506.58,502.24Z"/>
        <g>
          <path class="cls-2" d="M1660.4632,1496.2002c0,277.3801-226.8,502.24-506.58,502.24-55.9,0-109.6901-8.97-159.9701-25.5599-116.26-111.26-190.8499-283.4301-190.8499-476.6801s74.58-365.4099,190.83-476.6799c50.2899-16.5801,104.09-25.5601,159.99-25.5601,279.7799,0,506.58,224.8601,506.58,502.24Z"/>
          <path class="cls-2" d="M647.2933,1496.2002c0,277.3801,226.8,502.24,506.58,502.24,55.9,0,109.6901-8.97,159.9701-25.5599,116.26-111.26,190.8499-283.4301,190.8499-476.6801,0-193.24-74.58-365.4099-190.83-476.6799-50.2899-16.5801-104.09-25.5601-159.99-25.5601-279.7799,0-506.58,224.8601-506.58,502.24Z"/>
          <line class="cls-2" x1="1153.8789" y1="993.9602" x2="1153.8789" y2="1998.441"/>
          <line class="cls-2" x1="647.2915" y1="1491.8537" x2="1660.4662" y2="1491.8537"/>
          <path class="cls-2" d="M738.2383,1215.4383s177.5596,69.8059,415.6405,69.8059,415.2839-76.7495,415.2839-76.7495"/>
          <path class="cls-2" d="M731.045,1770.9471s184.753-72.4839,422.8339-72.4839,418.9435,78.2746,418.9435,78.2746"/>
        </g>
      </g>
      <g>
        <g>
          <path class="cls-4" d="M1732.1134,1029.6702c-8.7202,13.78-21.1401,26.55-36.8301,37.3901-.03.03-.0601.05-.1001.0798-2.1399,1.48-4.3398,2.9202-6.6099,4.3301-.02.01-.05.03-.0701.04-45.8201,28.4199-116.0901,41.22-201.6899,19.2-8.51-2.1899-16.3601-4.48-23.6201-6.8401-13.3201-4.3198-24.6799-8.8899-34.5598-13.4897-.0103-.0103-.02-.0103-.0303-.02-8.2397-3.8301-15.4399-7.7002-21.8999-11.48-.01-.0103-.02-.02-.03-.02-41.5798-24.3801-52-45.2603-105.4199-32.4602-77.1001,18.47-124.0701-25.5598-104.71,0,8.8499,11.6902,23.9299,35.72,35.3899,63.3601,13.6101,32.77,22.1401,70.62,9.22,98.98-23.8098,52.28-71.0499,46.61-126.23,37.54-39.9199-6.5601-58.9399-30.72-67.5999-50.73-3.3101-7.66-5.1001-14.7001-5.9701-19.9301-.75-4.5-7.9301-8.4501-19.1-11.88-35.8201-11.01-112.74-16.73-150.8101-18.22-20.4299-.8-40.3799-1.5801-57.03-.96-24.0599.8799-41.23,4.6699-43.0299,15.5-.3199,1.8999-.78,4.95-1.4,8.8999-5.3101,34.0701-21.73,135.39-49.22,150.28-18.96,10.28-67.54,12.87-107.97,1.15-24.9401-7.2301-46.79-19.9-56.67-39.5699-25.9-51.54,44.0499-65.03,0-112.9701-36.48-39.7101-76.1-117.84-88.99-214.35-2.67-19.99-4.1901-40.78-4.2999-62.1699-.6401-124.6702,91.5698-220.1501,196.8398-246.6802,105.26-26.5198,124.23-19.23,139.28-54.8699,0,0,20.41-104.3201,159.8701-114.52,139.47-10.21,146.5399,53.0601,216.7,47.5,70.1699-5.55,239.3699,13.99,277.23,125.28,37.8499,111.29,79.8,346.53,150.0999,336.3201,70.3-10.2002,62.9402-46.8201,95.25-38.55,32.3101,8.28,68.0303,50.1199,34.0103,103.8599Z"/>
          <g>
            <path class="cls-12" d="M779.6763,1049.4016s-4.1575,23.4331,80.5039,23.4331,157.6063,8.982,182.5512,53.2469c24.9449,44.2649-20.4094,10.2492-61.6063,2.3122-41.1969-7.937-100.1575-12.8504-156.4724-12.8504s-44.9764-66.1417-44.9764-66.1417Z"/>
            <path class="cls-12" d="M1120.6842,945.3702s40.8189,33.0208,109.7008,39.8962c68.8819,6.8754,92.591-6.1738,96.0945,21.3321,3.5035,27.5059-16.8493,26.5591-78.9408,23.8224s-125.1537-51.035-126.8544-85.0507Z"/>
          </g>
          <g>
            <path class="cls-5" d="M769.9832,1148.9602c-5.3101,34.0701-21.73,135.39-49.22,150.28-18.96,10.28-67.54,12.87-107.97,1.15,8.23-10.55,14.1899-17.41,14.1899-17.41,0,0,32.13-39.3101,41.95-43.09,9.8301-3.78,43.8501,7.9401,44.6001,19.2799.75,11.1201-11.25,30.6101-11.7,31.3501.3499-.4,6.1099-6.8301,8.6799-7.92,2.6399-1.14,20.6899-36.1901,32.6-85.51,4.9601-20.5699,13.59-36.0599,26.87-48.13Z"/>
            <path class="cls-5" d="M1022.2533,1143.7402c-35.8201-11.01-112.74-16.73-150.8101-18.22-20.4299-.8-40.3799-1.5801-57.03-.96,12.03-4.1201,25.7101-7.6301,41.2201-10.8101,58.36-11.96,129.1901-4.54,166.62,29.99Z"/>
            <path class="cls-5" d="M1231.9332,1089.7602c13.6101,32.77,22.1401,70.62,9.22,98.98-23.8098,52.28-71.0499,46.61-126.23,37.54-39.9199-6.5601-58.9399-30.72-67.5999-50.73,34.8199,37.78,101.4199,41.95,101.4199,41.95,0,0,1.7-41.6699,32.3201-56.13,30.6099-14.4601,53.26,18.7101,53.26,18.7101,0,0,4.0698,14.25,0-49.3201-1.03-16.1299-2.1201-29.6602-2.3901-41Z"/>
            <path class="cls-5" d="M1406.7032,1058.8804c6.9399,3.4199,14.23,7.2397,21.8999,11.48-8.2397-3.8301-15.4399-7.7002-21.8999-11.48Z"/>
            <path class="cls-5" d="M1688.5033,1071.5102c-45.8201,28.4199-116.0901,41.22-201.6899,19.2-8.51-2.1899-16.3601-4.48-23.6201-6.8401,73.8,20.1702,185.99,9.5,225.3101-12.3599Z"/>
            <path class="cls-5" d="M1732.1134,1029.6702c-8.7202,13.78-21.1401,26.55-36.8301,37.3901,36.3101-28.8301,36.27-66.98,31.73-87.3901-4.53-20.4099-37.4199-44.7898-40.25-40.25-2.8301,4.53-15.3101,15.8701-24.3799,22.1101-9.0701,6.23-12.4702,44.22-89.5701,34.5801-77.1101-9.6401-87.3101-179.7202-96.95-214.3-9.6401-34.5801-30.6101-126.4202-117.9202-182.55-87.3098-56.1299-171.78-36.28-171.78-36.28l-30.6099,1.7v37.98s-71.4401-117.3499-201.26-99.21c-129.8301,18.1401-161.5801,139.46-161.5801,139.46,0,0-28.34,13.6101-36.28,13.6101s-125.2899,11.9099-201.26,96.3799c-45.6199,50.7302-73.25,127.01-88.0399,180.6001-2.67-19.99-4.1901-40.78-4.2999-62.1699-.6401-124.6702,91.5698-220.1501,196.8398-246.6802,105.26-26.5198,124.23-19.23,139.28-54.8699,0,0,20.41-104.3201,159.8701-114.52,139.47-10.21,146.5399,53.0601,216.7,47.5,70.1699-5.55,239.3699,13.99,277.23,125.28,37.8499,111.29,79.8,346.53,150.0999,336.3201,70.3-10.2002,62.9402-46.8201,95.25-38.55,32.3101,8.28,68.0303,50.1199,34.0103,103.8599Z"/>
          </g>
        </g>
        <g>
          <path class="cls-2" d="M1169.7236,556.1733s-45.3436-94.7644-160.4409-108.8504c-117.3543-14.3622-234.4607,74.2244-242.4567,222.6142-8.3099,154.2153,110.0787,262.9606,247.5591,241.7008"/>
          <path class="cls-2" d="M1324.7787,987.0394c90.9921,96.0945,168.7559,113.9528,254.6457,113.9528s158.6457-74.8346,166.2992-119.0551c7.6535-44.2205-41.1969-71.1596-54.8031-69.9213s-18.7422,25.6051-41.1969,43.2756c-27.4961,21.6378-95.1285,36.9558-130.7717-77.1024-39.685-126.9921-11.3921-232.9025-133.8488-320.2096-122.4567-87.3071-248.4504-48.1053-248.4504-48.1053"/>
          <path class="cls-2" d="M777.3549,607.5778s-127.7888-26.1762-251.0959,116.69c-123.3071,142.8661-41.6693,346.9606-5.1024,387.7795,36.5669,40.8189,52.7244,44.2205,43.3701,65.4803-9.3543,21.2598-22.2047,59.3386-16.1575,74.4567,6.0472,15.1181,68.4094,43.4646,108.0945,51.7795,39.685,8.315,68.4094-.378,75.2126-15.874,6.8031-15.4961,15.1181-73.7008,29.4803-109.2283s43.0866-55.937,43.0866-55.937c0,0,77.1024,4.1575,141.7323,4.1575s91.0866,9.4488,98.2677,36.6614c7.1811,27.2126,19.2756,62.7402,70.6772,62.7402h86.1732c24.9449,0,49.5118-20.7874,49.5118-69.5433s-4.063-145.8898-171.5906-145.8898"/>
          <path class="cls-2" d="M1369.2233,1028.7999s-62.5864,13.0426-139.9722,4.5387c-77.3858-8.5039-115.3701-64.1575-129.8268-99.0236"/>
          <line class="cls-2" x1="1226.0385" y1="1032.9547" x2="1175.5254" y2="1026.3958"/>
          <path class="cls-2" d="M724.4007,1006.5985s71.2692,32.5041,42.0125,160.819"/>
          <path class="cls-2" d="M1241.1566,798.0631s16.252,33.6378,54.4252,33.6378,54.4252-33.6378,54.4252-33.6378"/>
          <path class="cls-2" d="M389.3456,1180.0788s49.3228-28.063,63.7795-79.0866c14.4567-51.0236,5.6855-123.5782,7.5349-175.1811"/>
        </g>
      </g>
      <g>
        <g>
          <path class="cls-3" d="M1102.4432,2027.5403c0,2.28-1.1899,3.6599-2.3799,4.46-1.17.78-2.3401,1.02-2.3401,1.02-210.8999,11.0601-307.28-39.6801-417.83-133.22-87.26-73.8401-128.25-219.3901-141.64-277.4301-3.5801-15.49-5.1899-24.75-5.1899-24.75-.6602-4.24,86.1699-6.7999,196.72,16.4401,110.55,23.25,223.3699,79.9399,293.11,195.0299,22.3099,36.8099,38.48,71.9701,50.17,102.9,3.23,8.5601,6.1199,16.79,8.6899,24.65,17.25,52.5299,20.6899,88.22,20.6899,90.9Z"/>
          <path class="cls-7" d="M1073.0633,1911.9902c-16.3901-15.22-41.67-45.9399-41.67-45.9399,0,0-41.67-79.6401-165.83-161.28-98.1101-64.52-262.6201-79.1101-327.3101-82.4-3.5801-15.49-5.1899-24.75-5.1899-24.75-.6602-4.24,86.1699-6.7999,196.72,16.4401,110.55,23.25,223.3699,79.9399,293.11,195.0299,22.3099,36.8099,38.48,71.9701,50.17,102.9Z"/>
          <path class="cls-9" d="M1102.4432,2027.5403c0,2.28-1.1899,3.6599-2.3799,4.46-85.8801-78.64-255.29-230.1001-255.29-230.1001l-12.3701-17.1899s135.8801,52.0601,249.3501,151.9301c17.25,52.5299,20.6899,88.22,20.6899,90.9Z"/>
        </g>
        <path class="cls-2" d="M1102.4432,2027.5403c0,4.54-4.72,5.48-4.72,5.48-210.8999,11.0601-307.28-39.6801-417.83-133.22-87.26-73.8401-128.25-219.3901-141.64-277.4301-3.5801-15.49-5.1899-24.75-5.1899-24.75-.6602-4.24,86.1699-6.7999,196.72,16.4401,110.55,23.25,223.3699,79.9399,293.11,195.0299,22.3099,36.8099,38.48,71.9701,50.17,102.9,24.8398,65.77,29.3799,112.47,29.3799,115.55Z"/>
        <path class="cls-6" d="M699.7394,1720.0788c75.6816,25.4812,145.214,66.7045,210.2827,112.567,65.4503,46.9686,125.7582,101.1649,180.5591,160.4304,11.2969,12.1854,10.5627,31.2323-1.6405,42.5108-12.1914,11.2699-31.2106,10.5228-42.4805-1.6686-57.4338-79.7387-123.323-153.9793-199.4817-216.5961-45.5516-37.1838-94.019-71.7883-147.2391-97.2435h0Z"/>
      </g>
      <g>
        <g>
          <path class="cls-3" d="M1189.0339,2027.5403c0,2.28,1.1899,3.6599,2.3799,4.46,1.17.78,2.3401,1.02,2.3401,1.02,210.8999,11.0601,307.28-39.6801,417.83-133.22,87.26-73.8401,128.25-219.3901,141.64-277.4301,3.5801-15.49,5.1899-24.75,5.1899-24.75.6602-4.24-86.1699-6.7999-196.72,16.4401-110.55,23.25-223.3699,79.9399-293.11,195.0299-22.3099,36.8099-38.48,71.9701-50.17,102.9-3.23,8.5601-6.1199,16.79-8.6899,24.65-17.25,52.5299-20.6899,88.22-20.6899,90.9Z"/>
          <path class="cls-7" d="M1218.4137,1911.9902c16.3901-15.22,41.67-45.9399,41.67-45.9399,0,0,41.67-79.6401,165.83-161.28,98.1101-64.52,262.6201-79.1101,327.3101-82.4,3.5801-15.49,5.1899-24.75,5.1899-24.75.6602-4.24-86.1699-6.7999-196.72,16.4401-110.55,23.25-223.3699,79.9399-293.11,195.0299-22.3099,36.8099-38.48,71.9701-50.17,102.9Z"/>
          <path class="cls-9" d="M1189.0339,2027.5403c0,2.28,1.1899,3.6599,2.3799,4.46,85.8801-78.64,255.29-230.1001,255.29-230.1001l12.3701-17.1899s-135.8801,52.0601-249.3501,151.9301c-17.25,52.5299-20.6899,88.22-20.6899,90.9Z"/>
        </g>
        <path class="cls-2" d="M1189.0339,2027.5403c0,4.54,4.72,5.48,4.72,5.48,210.8999,11.0601,307.28-39.6801,417.83-133.22,87.26-73.8401,128.25-219.3901,141.64-277.4301,3.5801-15.49,5.1899-24.75,5.1899-24.75.6602-4.24-86.1699-6.7999-196.72,16.4401-110.55,23.25-223.3699,79.9399-293.11,195.0299-22.3099,36.8099-38.48,71.9701-50.17,102.9-24.8398,65.77-29.3799,112.47-29.3799,115.55Z"/>
        <path class="cls-6" d="M1591.7376,1720.0788c-53.2197,25.455-101.6879,60.06-147.2398,97.2427-45.0364,37.253-86.9721,78.4658-125.196,122.4689-25.477,29.2809-49.4514,59.7322-71.8875,91.1808-9.6422,13.5155-28.4152,16.6554-41.9307,7.0132-14.7038-10.3242-16.8751-31.8264-4.5875-44.9084,54.7993-59.2642,115.1096-113.4627,180.5593-160.4296,65.0672-45.863,134.6019-87.0869,210.2822-112.5677h0Z"/>
      </g>
    </g>
  </g>
  <g>
    <path class="cls-5" d="M1744.6519,920.1865s115.4419-41.5163,208.7635-158.8042c93.3216-117.288,46.7711-230.3851-36.6387-268.7271-83.4099-38.342-160.4711,41.8075-182.5398,103.7798-22.0687,61.9723,45.5152,178.1381,37.6541,237.5489-7.8611,59.4108-45.0486,78.8757-27.2391,86.2027Z"/>
    <g class="cls-11">
      <path class="cls-10" d="M1883.1854,542.9564c26.766,13.0486,44.3026,64.3455,60.8588,69.0535,16.5562,4.7081,27.9318-24.6171-13.465-65.3312-41.3967-40.7142-71.5641-15.5054-47.3939-3.7223Z"/>
    </g>
    <path class="cls-2" d="M1744.6519,920.1865s115.4419-41.5163,208.7635-158.8042c93.3216-117.288,46.7711-230.3851-36.6387-268.7271-83.4099-38.342-171.0907,20.871-182.5398,103.7798-8.999,65.1661,45.5152,178.1381,37.6541,237.5489-7.8611,59.4108-45.0486,78.8757-27.2391,86.2027Z"/>
  </g>
</svg>
