<?xml version="1.0" encoding="UTF-8"?>
<svg width="100%" height="100%" viewBox="0 0 1900 1900" version="1.1" xmlns="http://www.w3.org/2000/svg" xml:space="preserve" style="fill-rule:evenodd;clip-rule:evenodd;stroke-miterlimit:2;">
    <g>
        <path d="M1408.54,1759.5C1408.54,1787.91 1197.72,1810.95 937.66,1810.95C677.601,1810.95 466.782,1787.91 466.782,1759.5C466.782,1731.08 677.601,1708.05 937.66,1708.05C1197.72,1708.05 1408.54,1731.08 1408.54,1759.5Z" style="fill:#e8e7e2;fill-rule:nonzero;"/>
        <path d="M1456.79,1215.45C1456.79,1492.83 1229.99,1717.69 950.209,1717.69C894.309,1717.69 840.519,1708.72 790.239,1692.13C588.849,1625.74 443.619,1437.41 443.619,1215.45C443.619,993.495 588.839,805.165 790.219,738.765C840.509,722.185 894.309,713.205 950.209,713.205C1229.99,713.205 1456.79,938.065 1456.79,1215.45Z" style="fill:#546b7b;fill-rule:nonzero;"/>
        <path d="M1456.79,1215.45C1456.79,1492.83 1229.99,1717.69 950.209,1717.69C894.309,1717.69 840.519,1708.72 790.239,1692.13C588.849,1625.74 443.619,1437.41 443.619,1215.45C443.619,993.495 588.839,805.165 790.219,738.765C840.509,722.185 894.309,713.205 950.209,713.205C1229.99,713.205 1456.79,938.065 1456.79,1215.45Z" style="fill:none;stroke:#79bd70;stroke-width:46px;"/>
        <path d="M1456.79,1215.45C1456.79,1492.83 1229.99,1717.69 950.209,1717.69C894.309,1717.69 840.519,1708.72 790.239,1692.13C673.979,1580.87 599.389,1408.7 599.389,1215.45C599.389,1022.21 673.969,850.035 790.219,738.765C840.509,722.185 894.309,713.205 950.209,713.205C1229.99,713.205 1456.79,938.065 1456.79,1215.45Z" style="fill:none;stroke:#34464c;stroke-width:46px;stroke-linecap:round;stroke-linejoin:round;"/>
        <path d="M443.619,1215.45C443.619,1492.83 670.419,1717.69 950.199,1717.69C1006.1,1717.69 1059.89,1708.72 1110.17,1692.13C1226.43,1580.87 1301.02,1408.7 1301.02,1215.45C1301.02,1022.21 1226.44,850.035 1110.19,738.765C1059.9,722.185 1006.1,713.205 950.199,713.205C670.419,713.205 443.619,938.065 443.619,1215.45Z" style="fill:none;stroke:#34464c;stroke-width:46px;stroke-linecap:round;stroke-linejoin:round;"/>
        <path d="M950.204,713.205L950.204,1717.69" style="fill:none;stroke:#34464c;stroke-width:46px;stroke-linecap:round;stroke-linejoin:round;"/>
        <path d="M443.617,1211.1L1456.79,1211.1" style="fill:none;stroke:#34464c;stroke-width:46px;stroke-linecap:round;stroke-linejoin:round;"/>
        <path d="M534.564,934.683C534.564,934.683 712.123,1004.49 950.204,1004.49C1188.28,1004.49 1365.49,927.739 1365.49,927.739" style="fill:none;stroke:#34464c;stroke-width:46px;stroke-linecap:round;stroke-linejoin:round;"/>
        <path d="M527.37,1490.19C527.37,1490.19 712.123,1417.71 950.204,1417.71C1188.28,1417.71 1369.15,1495.98 1369.15,1495.98" style="fill:none;stroke:#34464c;stroke-width:46px;stroke-linecap:round;stroke-linejoin:round;"/>
        <path d="M1528.44,748.915C1519.72,762.695 1507.3,775.465 1491.61,786.305L1491.51,786.385C1489.37,787.865 1487.17,789.305 1484.9,790.715L1484.83,790.755C1439.01,819.175 1368.74,831.975 1283.14,809.955C1274.63,807.765 1266.78,805.475 1259.52,803.115C1246.2,798.795 1234.84,794.225 1224.96,789.625L1224.93,789.605C1216.69,785.775 1209.49,781.905 1203.03,778.125L1203,778.105C1161.42,753.725 1151,732.845 1097.58,745.645C1020.48,764.115 973.509,720.085 992.869,745.645C1001.72,757.335 1016.8,781.365 1028.26,809.005C1041.87,841.775 1050.4,879.625 1037.48,907.985C1013.67,960.265 966.429,954.595 911.249,945.525C871.329,938.965 852.309,914.805 843.649,894.795C840.339,887.135 838.549,880.095 837.679,874.865C836.929,870.365 829.749,866.415 818.579,862.985C782.759,851.975 705.839,846.255 667.769,844.765C647.339,843.965 627.389,843.185 610.739,843.805C586.679,844.685 569.509,848.475 567.709,859.305C567.389,861.205 566.929,864.255 566.309,868.205C560.999,902.275 544.579,1003.6 517.089,1018.49C498.129,1028.77 449.549,1031.36 409.119,1019.63C384.179,1012.4 362.329,999.735 352.449,980.065C326.549,928.525 396.499,915.035 352.449,867.095C315.969,827.385 276.349,749.255 263.459,652.745C260.788,632.755 259.268,611.965 259.158,590.575C258.518,465.905 350.729,370.425 455.999,343.895C561.259,317.375 580.229,324.665 595.279,289.025C595.279,289.025 615.689,184.705 755.149,174.506C894.619,164.296 901.689,227.566 971.849,222.006C1042.02,216.455 1211.22,235.995 1249.08,347.285C1286.93,458.575 1328.88,693.815 1399.18,683.605C1469.48,673.405 1462.12,636.785 1494.43,645.055C1526.74,653.335 1562.46,695.175 1528.44,748.915Z" style="fill:#94b7d2;fill-rule:nonzero;"/>
        <path d="M576.002,768.646C576.002,768.646 571.844,792.08 656.506,792.08C741.167,792.08 814.112,801.062 839.057,845.326C864.002,889.591 818.647,855.576 777.451,847.639C736.254,839.702 677.293,834.788 620.978,834.788C564.663,834.788 576.002,768.646 576.002,768.646Z" style="fill:#7aa2c4;fill-rule:nonzero;"/>
        <path d="M917.01,664.615C917.01,664.615 957.829,697.636 1026.71,704.511C1095.59,711.387 1119.3,698.337 1122.81,725.843C1126.31,753.349 1105.96,752.402 1043.86,749.666C981.773,746.929 918.71,698.631 917.01,664.615Z" style="fill:#7aa2c4;fill-rule:nonzero;"/>
        <path d="M566.309,868.205C560.999,902.275 544.579,1003.6 517.089,1018.49C498.129,1028.77 449.549,1031.36 409.119,1019.63C417.349,1009.09 423.309,1002.23 423.309,1002.23C423.309,1002.23 455.439,962.915 465.259,959.135C475.089,955.355 509.109,967.075 509.859,978.415C510.609,989.535 498.609,1009.02 498.159,1009.76C498.509,1009.37 504.269,1002.94 506.839,1001.85C509.479,1000.71 527.529,965.655 539.439,916.335C544.399,895.765 553.029,880.275 566.309,868.205Z" style="fill:#c0d6eb;fill-rule:nonzero;"/>
        <path d="M818.579,862.985C782.759,851.975 705.839,846.255 667.769,844.765C647.339,843.965 627.389,843.185 610.739,843.805C622.769,839.685 636.449,836.175 651.959,832.995C710.319,821.035 781.149,828.455 818.579,862.985Z" style="fill:#c0d6eb;fill-rule:nonzero;"/>
        <path d="M1028.26,809.005C1041.87,841.775 1050.4,879.625 1037.48,907.985C1013.67,960.265 966.429,954.595 911.249,945.525C871.329,938.965 852.309,914.805 843.649,894.795C878.469,932.575 945.069,936.745 945.069,936.745C945.069,936.745 946.769,895.075 977.389,880.615C1008,866.155 1030.65,899.325 1030.65,899.325C1030.65,899.325 1034.72,913.575 1030.65,850.005C1029.62,833.875 1028.53,820.345 1028.26,809.005Z" style="fill:#c0d6eb;fill-rule:nonzero;"/>
        <path d="M1203.03,778.125C1209.97,781.545 1217.26,785.365 1224.93,789.605C1216.69,785.775 1209.49,781.905 1203.03,778.125Z" style="fill:#c0d6eb;fill-rule:nonzero;"/>
        <path d="M1484.83,790.755C1439.01,819.175 1368.74,831.975 1283.14,809.955C1274.63,807.765 1266.78,805.475 1259.52,803.115C1333.32,823.285 1445.51,812.615 1484.83,790.755Z" style="fill:#c0d6eb;fill-rule:nonzero;"/>
        <path d="M1528.44,748.915C1519.72,762.695 1507.3,775.465 1491.61,786.305C1527.92,757.475 1527.88,719.325 1523.34,698.915C1518.81,678.505 1485.92,654.125 1483.09,658.665C1480.26,663.195 1467.78,674.535 1458.71,680.775C1449.64,687.005 1446.24,724.995 1369.14,715.355C1292.03,705.715 1281.83,535.635 1272.19,501.055C1262.55,466.475 1241.58,374.635 1154.27,318.505C1066.96,262.375 982.489,282.225 982.489,282.225L951.879,283.925L951.879,321.905C951.879,321.905 880.439,204.556 750.619,222.695C620.789,240.836 589.039,362.155 589.039,362.155C589.039,362.155 560.699,375.765 552.759,375.765C544.819,375.765 427.469,387.675 351.499,472.145C305.879,522.875 278.249,599.155 263.459,652.745C260.788,632.755 259.268,611.965 259.158,590.575C258.518,465.905 350.729,370.425 455.999,343.895C561.259,317.375 580.229,324.665 595.279,289.025C595.279,289.025 615.689,184.705 755.149,174.506C894.619,164.296 901.689,227.566 971.849,222.006C1042.02,216.455 1211.22,235.995 1249.08,347.285C1286.93,458.575 1328.88,693.815 1399.18,683.605C1469.48,673.405 1462.12,636.785 1494.43,645.055C1526.74,653.335 1562.46,695.175 1528.44,748.915Z" style="fill:#c0d6eb;fill-rule:nonzero;"/>
        <path d="M966.049,275.418C966.049,275.418 920.705,180.654 805.608,166.568C688.254,152.206 571.147,240.793 563.151,389.182C554.841,543.397 673.23,652.143 810.71,630.883" style="fill:none;stroke:#34464c;stroke-width:46px;stroke-linecap:round;stroke-linejoin:round;"/>
        <path d="M1121.1,706.284C1212.1,802.379 1289.86,820.237 1375.75,820.237C1461.64,820.237 1534.39,745.402 1542.05,701.182C1549.7,656.961 1500.85,630.022 1487.24,631.261C1473.64,632.499 1468.5,656.866 1446.05,674.536C1418.55,696.174 1350.92,711.492 1315.28,597.434C1275.59,470.442 1303.88,364.531 1181.43,277.224C1058.97,189.918 932.978,229.119 932.978,229.119" style="fill:none;stroke:#34464c;stroke-width:46px;stroke-linecap:round;stroke-linejoin:round;"/>
        <path d="M573.68,326.823C573.68,326.823 445.891,300.646 322.584,443.513C199.277,586.379 280.915,790.473 317.482,831.292C354.049,872.111 370.206,875.513 360.852,896.772C351.498,918.032 338.647,956.111 344.695,971.229C350.742,986.347 413.104,1014.69 452.789,1023.01C492.474,1031.32 521.199,1022.63 528.002,1007.13C534.805,991.639 543.12,933.434 557.482,897.906C571.844,862.379 600.569,841.969 600.569,841.969C600.569,841.969 677.671,846.127 742.301,846.127C806.931,846.127 833.388,855.576 840.569,882.788C847.75,910.001 859.844,945.528 911.246,945.528L997.419,945.528C1022.36,945.528 1046.93,924.741 1046.93,875.985C1046.93,827.229 1042.87,730.095 875.34,730.095" style="fill:none;stroke:#34464c;stroke-width:46px;stroke-linecap:round;stroke-linejoin:round;"/>
        <path d="M1165.55,748.045C1165.55,748.045 1102.96,761.087 1025.58,752.583C948.191,744.08 910.206,688.426 895.75,653.56" style="fill:none;stroke:#34464c;stroke-width:46px;stroke-linecap:round;stroke-linejoin:round;"/>
        <path d="M1022.36,752.2L971.851,745.641" style="fill:none;stroke:#34464c;stroke-width:46px;stroke-linecap:round;stroke-linejoin:round;"/>
        <path d="M520.726,725.843C520.726,725.843 591.995,758.347 562.739,886.662" style="fill:none;stroke:#34464c;stroke-width:46px;stroke-linecap:round;stroke-linejoin:round;"/>
        <path d="M1037.48,517.308C1037.48,517.308 1053.73,550.946 1091.91,550.946C1130.08,550.946 1146.33,517.308 1146.33,517.308" style="fill:none;stroke:#34464c;stroke-width:46px;stroke-linecap:round;stroke-linejoin:round;"/>
        <path d="M185.671,899.324C185.671,899.324 234.993,871.261 249.45,820.237C263.907,769.213 255.136,696.659 256.985,645.056" style="fill:none;stroke:#34464c;stroke-width:46px;stroke-linecap:round;stroke-linejoin:round;"/>
        <path d="M898.769,1746.79C898.769,1749.07 897.579,1750.45 896.389,1751.25C895.219,1752.03 894.049,1752.27 894.049,1752.27C683.149,1763.33 586.769,1712.59 476.219,1619.05C388.959,1545.21 347.969,1399.66 334.579,1341.62C330.999,1326.13 329.389,1316.87 329.389,1316.87C328.729,1312.63 415.559,1310.07 526.109,1333.31C636.659,1356.56 749.479,1413.25 819.219,1528.34C841.529,1565.15 857.699,1600.31 869.389,1631.24C872.619,1639.8 875.509,1648.03 878.079,1655.89C895.329,1708.42 898.769,1744.11 898.769,1746.79Z" style="fill:#79bd70;fill-rule:nonzero;"/>
        <path d="M869.389,1631.24C852.999,1616.02 827.719,1585.3 827.719,1585.3C827.719,1585.3 786.049,1505.66 661.889,1424.02C563.779,1359.5 399.269,1344.91 334.579,1341.62C330.999,1326.13 329.389,1316.87 329.389,1316.87C328.729,1312.63 415.559,1310.07 526.109,1333.31C636.659,1356.56 749.479,1413.25 819.219,1528.34C841.529,1565.15 857.699,1600.31 869.389,1631.24Z" style="fill:#94cd8d;fill-rule:nonzero;"/>
        <path d="M898.769,1746.79C898.769,1749.07 897.579,1750.45 896.389,1751.25C810.509,1672.61 641.099,1521.15 641.099,1521.15L628.729,1503.96C628.729,1503.96 764.609,1556.02 878.079,1655.89C895.329,1708.42 898.769,1744.11 898.769,1746.79Z" style="fill:#58a667;fill-rule:nonzero;"/>
        <path d="M898.769,1746.79C898.769,1751.33 894.049,1752.27 894.049,1752.27C683.149,1763.33 586.769,1712.59 476.219,1619.05C388.959,1545.21 347.969,1399.66 334.579,1341.62C330.999,1326.13 329.389,1316.87 329.389,1316.87C328.729,1312.63 415.559,1310.07 526.109,1333.31C636.659,1356.56 749.479,1413.25 819.219,1528.34C841.529,1565.15 857.699,1600.31 869.389,1631.24C894.229,1697.01 898.769,1743.71 898.769,1746.79Z" style="fill:none;stroke:#34464c;stroke-width:46px;stroke-linecap:round;stroke-linejoin:round;"/>
        <path d="M496.065,1439.32C571.746,1464.8 641.279,1506.03 706.347,1551.89C771.798,1598.86 832.106,1653.06 886.907,1712.32C898.203,1724.51 897.469,1743.55 885.266,1754.83C873.075,1766.1 854.055,1765.35 842.786,1753.16C785.352,1673.42 719.463,1599.18 643.304,1536.57C597.752,1499.38 549.285,1464.78 496.065,1439.32Z" style="fill:#34464c;fill-rule:nonzero;"/>
        <path d="M985.359,1746.79C985.359,1749.07 986.549,1750.45 987.739,1751.25C988.909,1752.03 990.079,1752.27 990.079,1752.27C1200.98,1763.33 1297.36,1712.59 1407.91,1619.05C1495.17,1545.21 1536.16,1399.66 1549.55,1341.62C1553.13,1326.13 1554.74,1316.87 1554.74,1316.87C1555.4,1312.63 1468.57,1310.07 1358.02,1333.31C1247.47,1356.56 1134.65,1413.25 1064.91,1528.34C1042.6,1565.15 1026.43,1600.31 1014.74,1631.24C1011.51,1639.8 1008.62,1648.03 1006.05,1655.89C988.799,1708.42 985.359,1744.11 985.359,1746.79Z" style="fill:#79bd70;fill-rule:nonzero;"/>
        <path d="M1014.74,1631.24C1031.13,1616.02 1056.41,1585.3 1056.41,1585.3C1056.41,1585.3 1098.08,1505.66 1222.24,1424.02C1320.35,1359.5 1484.86,1344.91 1549.55,1341.62C1553.13,1326.13 1554.74,1316.87 1554.74,1316.87C1555.4,1312.63 1468.57,1310.07 1358.02,1333.31C1247.47,1356.56 1134.65,1413.25 1064.91,1528.34C1042.6,1565.15 1026.43,1600.31 1014.74,1631.24Z" style="fill:#94cd8d;fill-rule:nonzero;"/>
        <path d="M985.359,1746.79C985.359,1749.07 986.549,1750.45 987.739,1751.25C1073.62,1672.61 1243.03,1521.15 1243.03,1521.15L1255.4,1503.96C1255.4,1503.96 1119.52,1556.02 1006.05,1655.89C988.799,1708.42 985.359,1744.11 985.359,1746.79Z" style="fill:#58a667;fill-rule:nonzero;"/>
        <path d="M985.359,1746.79C985.359,1751.33 990.079,1752.27 990.079,1752.27C1200.98,1763.33 1297.36,1712.59 1407.91,1619.05C1495.17,1545.21 1536.16,1399.66 1549.55,1341.62C1553.13,1326.13 1554.74,1316.87 1554.74,1316.87C1555.4,1312.63 1468.57,1310.07 1358.02,1333.31C1247.47,1356.56 1134.65,1413.25 1064.91,1528.34C1042.6,1565.15 1026.43,1600.31 1014.74,1631.24C989.899,1697.01 985.359,1743.71 985.359,1746.79Z" style="fill:none;stroke:#34464c;stroke-width:46px;stroke-linecap:round;stroke-linejoin:round;"/>
        <path d="M1388.06,1439.32C1334.84,1464.78 1286.37,1499.38 1240.82,1536.57C1195.79,1573.82 1153.85,1615.03 1115.63,1659.04C1090.15,1688.32 1066.18,1718.77 1043.74,1750.22C1034.1,1763.73 1015.33,1766.87 1001.81,1757.23C987.105,1746.91 984.934,1725.4 997.222,1712.32C1052.02,1653.06 1112.33,1598.86 1177.78,1551.89C1242.85,1506.03 1312.38,1464.8 1388.06,1439.32Z" style="fill:#34464c;fill-rule:nonzero;"/>
        <path d="M1540.98,639.431C1540.98,639.431 1656.42,597.915 1749.74,480.627C1843.06,363.339 1796.51,250.242 1713.1,211.9C1629.69,173.558 1552.63,253.708 1530.56,315.68C1508.49,377.652 1576.08,493.818 1568.22,553.229C1560.35,612.64 1523.17,632.105 1540.98,639.431Z" style="fill:#c0d6eb;fill-rule:nonzero;"/>
        <path d="M1743.79,331.751C1742.69,331.751 1741.54,331.588 1740.37,331.255C1723.81,326.547 1706.28,275.25 1679.51,262.201C1665.25,255.248 1669.9,243.621 1684.62,243.621C1694.85,243.621 1709.93,249.234 1726.9,265.923C1765.37,303.755 1758.27,331.753 1743.79,331.751Z" style="fill:#d2e2f1;fill-rule:nonzero;"/>
        <path d="M1540.98,639.431C1540.98,639.431 1656.42,597.915 1749.74,480.627C1843.06,363.339 1796.51,250.242 1713.1,211.9C1629.69,173.558 1542.01,232.771 1530.56,315.68C1521.56,380.846 1576.08,493.818 1568.22,553.229C1560.35,612.639 1523.17,632.104 1540.98,639.431Z" style="fill:none;stroke:#34464c;stroke-width:46px;stroke-linecap:round;stroke-linejoin:round;"/>
    </g>
</svg>
